Coordinates
version=1
nRows=34
nColumns=33
inDegrees=yes

Units are S.I. units (second, meters, Newtons, ...)
Angles are in degrees.

endheader
time	ground_thorax_rot_x	ground_thorax_rot_y	ground_thorax_rot_z	ground_thorax_tx	ground_thorax_ty	ground_thorax_tz	clav_prot_r	clav_elev_r	scapula_abduction_r	scapula_elevation_r	scapula_upward_rot_r	scapula_winging_r	shoulder_elv_r	plane_of_elev_r	axial_rot_r	elbow_flexion_r	pro_sup_r	wrist_flex_r	wrist_dev_r	clav_prot_l	clav_elev_l	scapula_abduction_l	scapula_elevation_l	scapula_upward_rot_l	scapula_winging_l	shoulder_elv_l	plane_of_elev_l	axial_rot_l	elbow_flexion_l	pro_sup_l	wrist_flex_l	wrist_dev_l	
7.0000	39.795209	9.250529	8.787605	-81.785706	779.421001	20.405347	17.709134	38.952728	44.999628	39.610396	-25.359061	-1882.269908	-3715.803425	145.814975	180.000000	1085.690067	48.539963	19.939340	13.870217	6.460810	-45.000000	-45.027098	45.000000	-31.593798	1161.700194	-1179.498940	134.740565	-180.000000	-351.506969	41.666573	8.720274	-19.847552	
7.0100	39.802027	9.329567	8.931794	-82.320253	779.358449	20.301075	17.676485	38.884515	44.999334	39.645695	-25.597433	-1882.256367	-3715.782841	145.788496	180.000000	1085.763673	48.544971	19.991308	13.856351	6.182615	-45.000000	-44.770566	45.000000	-31.925887	1161.681284	-1179.423768	134.708635	-180.000000	-351.509404	41.353092	8.798456	-19.831639	
7.0200	39.805117	9.371992	9.058630	-82.868918	779.299855	20.195107	17.640584	38.769633	44.998806	39.654444	-25.849622	-1882.287327	-3715.749148	145.685310	180.000000	1085.825403	48.540688	20.079413	13.817278	5.841016	-45.000000	-44.458730	45.000000	-32.251180	1161.675448	-1179.325896	134.627384	-180.000000	-351.538989	41.058692	8.939342	-19.823055	
7.0300	39.824648	9.452302	9.209076	-83.447112	779.247566	20.085546	17.655316	38.731469	44.997864	39.708581	-26.124464	-1882.279773	-3715.720304	145.638199	180.000000	1085.893955	48.541810	20.135431	13.797753	5.650671	-45.000000	-44.192741	45.000000	-32.609202	1161.659027	-1179.251242	134.587244	-180.000000	-351.528600	40.771972	9.010558	-19.810602	
7.0400	39.853661	9.538520	9.369176	-84.056644	779.204956	19.972718	17.693047	38.725791	44.996166	39.787426	-26.417196	-1882.254338	-3715.688767	145.601892	180.000000	1085.967818	48.541928	20.178726	13.788602	5.524200	-45.000000	-43.928418	45.000000	-32.987556	1161.640955	-1179.185592	134.555893	-180.000000	-351.508344	40.501847	9.052837	-19.796009	
7.0500	39.889176	9.632185	9.537370	-84.700915	779.175762	19.856916	17.756967	38.745336	44.993155	39.883524	-26.733629	-1882.227500	-3715.655132	145.561138	180.000000	1086.040038	48.536404	20.223067	13.775363	5.447350	-45.000000	-43.670172	45.000000	-33.388688	1161.623396	-1179.114796	134.529153	-180.000000	-351.470454	40.252373	9.083374	-19.785992	
7.0600	39.930918	9.722849	9.712425	-85.379191	779.163896	19.739081	17.826143	38.780319	44.987673	40.000113	-27.065748	-1882.182972	-3715.615529	145.522617	180.000000	1086.120298	48.526747	20.258222	13.772510	5.393263	-45.000000	-43.401594	45.000000	-33.803630	1161.608548	-1179.045547	134.502475	-180.000000	-351.432581	40.024591	9.094371	-19.773854	
7.0700	39.970687	9.821352	9.897307	-86.089447	779.173061	19.620107	17.900468	38.813898	44.978103	40.119698	-27.416685	-1882.148617	-3715.572358	145.472754	180.000000	1086.198257	48.507026	20.305323	13.754827	5.327317	-45.000000	-43.138325	45.000000	-34.235630	1161.599404	-1178.958966	134.477110	-180.000000	-351.381172	39.818481	9.114369	-19.770599	
7.0800	40.013272	9.923909	10.088780	-86.829936	779.206510	19.500355	17.969794	38.854569	44.960261	40.254452	-27.784525	-1882.096584	-3715.518164	145.427140	180.000000	1086.287441	48.483733	20.344577	13.745750	5.268342	-45.000000	-42.868946	45.000000	-34.680454	1161.594701	-1178.868231	134.451662	-180.000000	-351.326175	39.630471	9.118465	-19.767127	
7.0900	40.054528	10.040135	10.290397	-87.599812	779.266877	19.379361	18.038097	38.888985	44.930713	40.392671	-28.163964	-1882.049226	-3715.458611	145.375273	180.000000	1086.372442	48.454968	20.394146	13.724301	5.208806	-45.000000	-42.607447	45.000000	-35.139005	1161.601680	-1178.765836	134.426872	-180.000000	-351.252844	39.460473	9.126543	-19.772360	
7.1000	40.097442	10.157143	10.491407	-88.398635	779.356150	19.255852	18.091347	38.924853	44.882443	40.541599	-28.552869	-1881.980089	-3715.379935	145.325129	180.000000	1086.476642	48.427633	20.435928	13.713100	5.157945	-45.000000	-42.343899	45.000000	-35.601288	1161.618101	-1178.660328	134.398844	-180.000000	-351.175166	39.306915	9.119882	-19.777463	
7.1100	40.135339	10.290849	10.699480	-89.226622	779.475444	19.127739	18.134956	38.945809	44.814148	40.690940	-28.940179	-1881.913538	-3715.295222	145.270320	180.000000	1086.574233	48.400713	20.486959	13.690489	5.113577	-45.000000	-42.094362	45.000000	-36.067517	1161.650959	-1178.550179	134.370447	-180.000000	-351.086445	39.171101	9.115046	-19.788861	
7.1200	40.170870	10.424595	10.895269	-90.083859	779.624652	18.992122	18.160491	38.971121	44.724906	40.847696	-29.336512	-1881.827190	-3715.186754	145.213406	180.000000	1086.691199	48.379595	20.532058	13.675101	5.078918	-45.000000	-41.857713	45.000000	-36.529846	1161.690352	-1178.427304	134.340418	-180.000000	-350.989053	39.053343	9.098321	-19.802809	
7.1300	40.203753	10.573946	11.096015	-90.970258	779.802083	18.845172	18.179016	38.984912	44.616358	41.015769	-29.733943	-1881.740378	-3715.077930	145.151036	180.000000	1086.803380	48.361879	20.586235	13.647107	5.054861	-45.000000	-41.630508	45.000000	-36.991652	1161.744964	-1178.303746	134.307801	-180.000000	-350.885655	38.958393	9.080746	-19.821184	
7.1400	40.233055	10.726648	11.289939	-91.884834	780.002974	18.680869	18.187785	39.005182	44.489578	41.194502	-30.142678	-1881.638740	-3714.949784	145.085153	180.000000	1086.931997	48.350750	20.635558	13.622380	5.039633	-45.000000	-41.412335	45.000000	-37.451368	1161.805166	-1178.166824	134.273784	-180.000000	-350.778525	38.892125	9.049349	-19.840940	
7.1500	40.258837	10.895878	11.496501	-92.825811	780.219578	18.490730	18.196246	39.012387	44.353252	41.388393	-30.553920	-1881.543813	-3714.829730	145.015331	180.000000	1087.051240	48.342870	20.695216	13.581290	5.034091	-45.000000	-41.193213	45.000000	-37.909985	1161.882280	-1178.037475	134.236208	-180.000000	-350.675367	38.867790	9.012336	-19.863219	
7.1600	40.278578	11.074996	11.710968	-93.786981	780.432321	18.256830	18.202463	39.029999	44.205118	41.606823	-30.993363	-1881.432019	-3714.700182	144.948534	180.000000	1087.192803	48.339847	20.751910	13.537694	5.036120	-45.000000	-40.984716	45.000000	-38.377414	1161.965626	-1177.900473	134.205275	-180.000000	-350.564251	38.911943	8.950082	-19.890679	
7.1700	40.290751	11.264942	11.949844	-94.759619	780.618484	17.957172	18.211393	39.036138	44.043962	41.858464	-31.460958	-1881.312387	-3714.577585	144.868659	180.000000	1087.339278	48.339578	20.818075	13.482644	5.054063	-45.000000	-40.757577	45.000000	-38.858975	1162.069743	-1177.773364	134.164083	-180.000000	-350.462572	39.061074	8.863327	-19.922954	
7.1800	40.255731	11.464057	12.220406	-95.712721	780.698535	17.524947	18.214075	39.030456	43.865469	42.116675	-31.982270	-1881.170140	-3714.426011	144.775389	180.000000	1087.495862	48.347529	20.885704	13.432744	5.083932	-45.000000	-40.534129	45.000000	-39.373806	1162.196362	-1177.607930	134.115274	-180.000000	-350.368761	39.436647	8.715823	-19.969900	
7.1900	40.165693	11.681033	12.550336	-96.623781	780.633129	16.915764	18.209305	39.013204	43.660385	42.399726	-32.569797	-1880.996915	-3714.258328	144.668230	180.000000	1087.662499	48.360342	20.962284	13.373922	5.132005	-45.000000	-40.303407	45.000000	-39.907957	1162.358413	-1177.433722	134.065933	-180.000000	-350.294707	40.095431	8.499329	-20.035029	
7.2000	39.900058	11.971948	13.079251	-97.346611	780.057272	15.837455	18.201278	38.971169	43.378485	42.719696	-33.382173	-1880.716457	-3714.024584	144.540199	180.000000	1087.866934	48.385084	21.050601	13.311155	5.236886	-45.000000	-40.038955	45.000000	-40.599357	1162.584243	-1177.196106	134.020068	-180.000000	-350.265594	41.595017	8.065368	-20.148811	
7.2100	39.508450	12.308809	13.771027	-97.900829	779.132383	14.356538	18.167624	38.920886	43.029934	43.078950	-34.350296	-1880.353967	-3713.749645	144.390650	180.000000	1088.095326	48.407384	21.147545	13.237429	5.358083	-45.000000	-39.754135	45.000000	-41.326076	1162.879003	-1176.944865	133.994696	-180.000000	-350.285180	43.659591	7.497165	-20.304069	
7.2200	39.018438	12.657955	14.566104	-98.321693	777.989910	12.548235	18.108631	38.864315	42.642576	43.439785	-35.410418	-1879.945180	-3713.426621	144.218468	180.000000	1088.324652	48.427892	21.248169	13.163845	5.486541	-45.000000	-39.476657	45.000000	-42.013971	1163.241206	-1176.669721	133.981084	-180.000000	-350.362103	46.011072	6.875878	-20.501154	
7.2300	38.599903	12.939742	15.271983	-98.807462	777.148278	10.801393	18.019630	38.857445	42.283115	43.794842	-36.352454	-1879.576509	-3713.114531	144.054257	180.000000	1088.544995	48.437065	21.338601	13.084515	5.567403	-45.000000	-39.272789	45.000000	-42.446232	1163.624950	-1176.449177	134.001904	-180.000000	-350.457462	47.761614	6.428358	-20.706998	
7.2400	38.262215	13.169340	15.876289	-99.419938	776.632247	9.192203	17.939967	38.892870	41.962155	44.136816	-37.191813	-1879.260399	-3712.805652	143.897876	180.000000	1088.757770	48.445879	21.422674	13.001393	5.642748	-45.000000	-39.123601	45.000000	-42.727558	1164.011650	-1176.246628	134.021717	-180.000000	-350.570728	48.796504	6.171225	-20.914683	
7.2500	38.120175	13.278411	16.219020	-100.335570	776.803587	8.039301	17.850807	38.976024	41.739051	44.430743	-37.751433	-1879.078091	-3712.542715	143.767798	180.000000	1088.942737	48.453697	21.491149	12.919882	5.655575	-45.000000	-39.063809	45.000000	-42.722403	1164.359652	-1176.102637	134.048040	-180.000000	-350.661254	48.590162	6.225012	-21.083323	
7.2600	38.124583	13.293286	16.334169	-101.560868	777.516652	7.305625	17.776696	39.073258	41.612966	44.652652	-38.077568	-1879.028067	-3712.310393	143.665670	180.000000	1089.104025	48.474718	21.553547	12.840455	5.648919	-45.000000	-39.068901	45.000000	-42.557199	1164.667035	-1175.974332	134.059471	-180.000000	-350.724577	47.442671	6.500269	-21.211026	
7.2700	38.247993	13.225927	16.250775	-103.085841	778.661983	6.947683	17.704722	39.165708	41.571430	44.807158	-38.187409	-1879.097807	-3712.119663	143.598837	180.000000	1089.254807	48.512650	21.611905	12.759545	5.620335	-45.000000	-39.120847	45.000000	-42.259474	1164.934332	-1175.878252	134.071147	-180.000000	-350.746922	45.677558	6.901534	-21.289728	
7.2800	38.352884	13.163831	16.149915	-104.758571	779.801830	6.652870	17.652015	39.222667	41.548483	44.917981	-38.280783	-1879.204268	-3711.927729	143.548041	180.000000	1089.414667	48.572690	21.677799	12.671440	5.631591	-45.000000	-39.157242	45.000000	-42.057944	1165.194607	-1175.755469	134.066280	-180.000000	-350.747611	44.091670	7.223024	-21.346312	
7.2900	38.440850	13.086403	16.016143	-106.556391	780.953816	6.401675	17.582524	39.238943	41.544416	44.977243	-38.326354	-1879.350919	-3711.742272	143.511106	180.000000	1089.567959	48.646134	21.745111	12.581359	5.641377	-45.000000	-39.199358	45.000000	-41.861760	1165.456604	-1175.625486	134.064362	-180.000000	-350.720882	42.777675	7.452058	-21.381531	
7.3000	38.512883	13.007114	15.863822	-108.464616	782.128062	6.181117	17.512618	39.241296	41.542694	45.000000	-38.355053	-1879.518258	-3711.549369	143.478899	180.000000	1089.715340	48.727370	21.809413	12.486708	5.667397	-45.000000	-39.254990	45.000000	-41.687865	1165.720972	-1175.477884	134.062900	-180.000000	-350.666214	41.725242	7.605648	-21.407732	
7.3100	38.575903	12.921963	15.692086	-110.475532	783.328127	5.984068	17.437169	39.228583	41.543010	45.000000	-38.366151	-1879.703668	-3711.355383	143.449419	180.000000	1089.860170	48.812856	21.871805	12.388381	5.703612	-45.000000	-39.322003	45.000000	-41.519770	1165.991762	-1175.322441	134.061877	-180.000000	-350.586847	40.915241	7.693079	-21.432160	
7.3200	38.629167	12.863221	15.537345	-112.582767	784.555308	5.805059	17.374778	39.221559	41.526059	45.000000	-38.418427	-1879.880333	-3711.142907	143.413163	180.000000	1090.001356	48.898575	21.928604	12.284713	5.765712	-45.000000	-39.381860	45.000000	-41.442131	1166.258899	-1175.134823	134.050357	-180.000000	-350.486030	40.292899	7.731485	-21.459338	
7.3300	38.676087	12.820928	15.394367	-114.779900	785.809744	5.639501	17.312994	39.207190	41.498028	45.000000	-38.498550	-1880.055195	-3710.919578	143.371525	180.000000	1090.141155	48.981932	21.981902	12.178570	5.835949	-45.000000	-39.430304	45.000000	-41.424770	1166.524938	-1174.926250	134.034131	-180.000000	-350.367618	39.843429	7.725314	-21.490364	
